<svg width="140" height="75" viewBox="0 0 140 75" fill="none" xmlns="http://www.w3.org/2000/svg">
<path d="M39.4648 51V16.8203H46.3008V51H39.4648ZM48.9863 51V44.9941H49.2305C51.1836 44.9941 52.4857 44.1803 53.1367 42.5527C53.3646 42.0319 53.4785 41.4948 53.4785 40.9414C53.4785 39.3138 52.8275 38.1419 51.5254 37.4258C50.8743 37.0677 50.1582 36.8887 49.377 36.8887H48.9863V30.9316H49.377C51.1999 30.9316 52.4531 30.1504 53.1367 28.5879C53.3646 28.0345 53.4785 27.4648 53.4785 26.8789C53.4785 25.2839 52.8112 24.112 51.4766 23.3633C50.793 23.0052 50.0443 22.8262 49.2305 22.8262H48.9863V16.8203H50.1582C54.39 16.8203 57.3685 18.3665 59.0938 21.459C59.9076 22.9564 60.3145 24.6003 60.3145 26.3906C60.3145 29.2227 59.4518 31.5176 57.7266 33.2754C57.4661 33.5033 57.222 33.7148 56.9941 33.9102C58.8822 35.3099 59.9727 37.4421 60.2656 40.3066C60.2982 40.6973 60.3145 41.0716 60.3145 41.4297C60.3145 44.5872 59.2077 47.0612 56.9941 48.8516C55.1712 50.2839 52.8926 51 50.1582 51H48.9863ZM63.8789 51V16.0391H70.9102V51H63.8789ZM74.8164 43.627V23.168H81.457V42.8457C81.5221 44.0827 82.2708 44.7174 83.7031 44.75V51.2441C80.513 51.2441 78.0228 49.9909 76.2324 47.4844C75.2884 46.1497 74.8164 44.8639 74.8164 43.627ZM85.9492 51.2441V44.75C87.349 44.5872 88.1139 43.9525 88.2441 42.8457V23.168H94.8848V43.627C94.8848 45.1569 94.1686 46.7031 92.7363 48.2656C90.9134 50.2188 88.651 51.2116 85.9492 51.2441ZM98.5957 43.4316V30.6387C98.6283 29.0436 99.3607 27.4811 100.793 25.9512C102.551 24.1283 104.699 23.2005 107.238 23.168V29.3203C106.294 29.3203 105.643 29.7272 105.285 30.541C105.188 30.7363 105.139 30.9154 105.139 31.0781V33.5195H112.414V31.127C112.382 29.9225 111.535 29.3203 109.875 29.3203V23.168C112.251 23.168 114.335 23.9818 116.125 25.6094C117.688 27.0417 118.485 28.7018 118.518 30.5898V39.8184H105.139V43.4316C105.367 44.3757 106.083 44.8965 107.287 44.9941V51C104.227 51 101.802 49.7467 100.012 47.2402C99.0677 45.9056 98.5957 44.6361 98.5957 43.4316ZM109.875 51V45.043C111.633 45.0104 112.756 44.1803 113.244 42.5527L118.566 44.5547C118.078 46.638 116.841 48.3145 114.855 49.584C113.326 50.528 111.665 51 109.875 51ZM121.887 51V44.6035L130.334 29.5156H121.887V23.168H137.805V29.5156L129.602 44.6035H137.805V51H121.887Z" fill="#01F545"/>
<path d="M24.75 44.25C24.75 46.7363 22.44 48.75 19.5938 48.75C16.7475 48.75 14.4375 46.7363 14.4375 44.25C14.4375 41.7637 16.7475 39.75 19.5938 39.75C22.44 39.75 24.75 41.7637 24.75 44.25Z" fill="black"/>
<path fill-rule="evenodd" clip-rule="evenodd" d="M24.75 21.75V44.25H22.6875V21.75H24.75Z" fill="black"/>
<path d="M22.6875 21.345C22.6878 20.825 22.8531 20.3212 23.1555 19.9192C23.4578 19.5172 23.8784 19.2419 24.3457 19.14L30.5332 17.79C30.8324 17.7248 31.141 17.7327 31.437 17.8133C31.7329 17.8939 32.0088 18.0451 32.2447 18.256C32.4807 18.4669 32.6708 18.7322 32.8014 19.0329C32.932 19.3337 32.9998 19.6622 33 19.995V24L22.6875 26.25V21.345Z" fill="black"/>
<path fill-rule="evenodd" clip-rule="evenodd" d="M0 40.875C0 40.5766 0.108649 40.2905 0.302046 40.0795C0.495443 39.8685 0.757745 39.75 1.03125 39.75H8.25C8.5235 39.75 8.78581 39.8685 8.9792 40.0795C9.1726 40.2905 9.28125 40.5766 9.28125 40.875C9.28125 41.1734 9.1726 41.4595 8.9792 41.6705C8.78581 41.8815 8.5235 42 8.25 42H1.03125C0.757745 42 0.495443 41.8815 0.302046 41.6705C0.108649 41.4595 0 41.1734 0 40.875ZM0 31.875C0 31.5766 0.108649 31.2905 0.302046 31.0795C0.495443 30.8685 0.757745 30.75 1.03125 30.75H16.5C16.7735 30.75 17.0358 30.8685 17.2292 31.0795C17.4226 31.2905 17.5312 31.5766 17.5312 31.875C17.5312 32.1734 17.4226 32.4595 17.2292 32.6705C17.0358 32.8815 16.7735 33 16.5 33H1.03125C0.757745 33 0.495443 32.8815 0.302046 32.6705C0.108649 32.4595 0 32.1734 0 31.875ZM0 22.875C0 22.5766 0.108649 22.2905 0.302046 22.0795C0.495443 21.8685 0.757745 21.75 1.03125 21.75H16.5C16.7735 21.75 17.0358 21.8685 17.2292 22.0795C17.4226 22.2905 17.5312 22.5766 17.5312 22.875C17.5312 23.1734 17.4226 23.4595 17.2292 23.6705C17.0358 23.8815 16.7735 24 16.5 24H1.03125C0.757745 24 0.495443 23.8815 0.302046 23.6705C0.108649 23.4595 0 23.1734 0 22.875Z" fill="black"/>
</svg>
